<?xml version="1.0" encoding="iso-8859-1"?>
<!-- Generator: Adobe Illustrator 19.0.0, SVG Export Plug-In . SVG Version: 6.00 Build 0)  -->
<svg version="1.1" id="Capa_1" xmlns="http://www.w3.org/2000/svg" xmlns:xlink="http://www.w3.org/1999/xlink" x="0px" y="0px"
	 viewBox="0 0 512 512" style="enable-background:new 0 0 512 512;" xml:space="preserve">
<g>
	<path style="fill:#FFA000;" d="M181.333,53.333H96c-17.673,0-32,14.327-32,32v64C64,155.224,68.776,160,74.667,160h128
		c5.891,0,10.667-4.776,10.667-10.667v-64C213.333,67.66,199.006,53.333,181.333,53.333z"/>
	<path style="fill:#FFA000;" d="M416,53.333h-85.333c-17.673,0-32,14.327-32,32v64c0,5.891,4.776,10.667,10.667,10.667h128
		c5.891,0,10.667-4.776,10.667-10.667v-64C448,67.66,433.673,53.333,416,53.333z"/>
</g>
<path style="fill:#FFC107;" d="M480,138.667H32c-17.673,0-32,14.327-32,32V448c0,5.891,4.776,10.667,10.667,10.667h490.667
	c5.891,0,10.667-4.776,10.667-10.667V170.667C512,152.994,497.673,138.667,480,138.667z"/>
<path d="M501.333,458.667H10.667C4.776,458.667,0,453.891,0,448V170.667c0-17.673,14.327-32,32-32h448c17.673,0,32,14.327,32,32V448
	C512,453.891,507.224,458.667,501.333,458.667z M21.333,437.333h469.333V170.667c0-5.891-4.776-10.667-10.667-10.667H32
	c-5.891,0-10.667,4.776-10.667,10.667V437.333z"/>
<path d="M202.667,160h-128C68.776,160,64,155.224,64,149.333v-64c0-17.673,14.327-32,32-32h85.333c17.673,0,32,14.327,32,32v64
	C213.333,155.224,208.558,160,202.667,160z M85.333,138.667H192V85.333c0-5.891-4.776-10.667-10.667-10.667H96
	c-5.891,0-10.667,4.776-10.667,10.667V138.667z"/>
<path d="M437.333,160h-128c-5.891,0-10.667-4.776-10.667-10.667v-64c0-17.673,14.327-32,32-32H416c17.673,0,32,14.327,32,32v64
	C448,155.224,443.224,160,437.333,160z M320,138.667h106.667V85.333c0-5.891-4.776-10.667-10.667-10.667h-85.333
	c-5.891,0-10.667,4.776-10.667,10.667V138.667z"/>
<g>
</g>
<g>
</g>
<g>
</g>
<g>
</g>
<g>
</g>
<g>
</g>
<g>
</g>
<g>
</g>
<g>
</g>
<g>
</g>
<g>
</g>
<g>
</g>
<g>
</g>
<g>
</g>
<g>
</g>
</svg>
